# xmcd
#
# Track frame offsets: 
#        150
#        15851
#        29646
#        43332
#        62425
#        74989
#        96904
#        105337
#
# Disc length: 1565 seconds
#
# Revision: 0
# Processed by: cddbd v1.5.2PL0 Copyright (c) Steve Scherf et al.
# Submitted via: ExactAudioCopyFreeDBPlugin 1.0
#
DISCID=69061b08
DTITLE=PEAK3 - ArizonA
DYEAR=2011
DGENRE=Folk/Rock
TTITLE0=Me and Ray
TTITLE1=Yeah
TTITLE2=East Park
TTITLE3=Old Song
TTITLE4=8,25
TTITLE5=Durango
TTITLE6=Klindt Waltz
TTITLE7=A Ship
EXTD=
EXTT0=
EXTT1=
EXTT2=
EXTT3=
EXTT4=
EXTT5=
EXTT6=
EXTT7=
PLAYORDER=
